<svg width="638" height="855" viewBox="0 0 638 855" fill="none" xmlns="http://www.w3.org/2000/svg">
<path d="M2.83867 599.649C48.8145 746.354 484.582 855 484.582 855H638V426V0H484.582C484.582 0 -43.1372 452.943 2.83867 599.649Z" fill="#32329C"/>
<path d="M337.709 324.532C321.249 324.532 307.906 311.198 307.906 294.751C307.906 278.304 321.249 264.97 337.709 264.97C354.168 264.97 367.512 278.304 367.512 294.751C367.512 311.198 354.168 324.532 337.709 324.532Z" fill="#3F3D56"/>
<path d="M354.999 526.415C351.922 547.982 355.674 569.974 361.518 590.958C362.61 594.865 363.785 598.805 365.828 602.312C367.87 605.819 370.713 608.835 373.114 612.134C378.116 619.014 381.05 627.128 383.793 635.158C391.354 657.379 397.705 679.993 402.817 702.9C403.125 703.839 403.125 704.852 402.817 705.791C402.092 707.457 399.891 707.673 398.082 707.665L374.689 707.54C373.856 705.94 375.398 704.208 376.357 702.675C379.691 697.494 376.49 690.763 373.547 685.34C366.395 672.169 360.859 658.184 357.058 643.689C355.457 637.582 354.157 631.343 351.556 625.587C348.413 618.606 343.486 612.6 339.484 606.069C334.832 598.48 331.44 590.242 328.072 581.97C323.37 570.491 318.626 558.87 316.776 546.608C315.033 535.095 315.892 523.366 317.026 511.779C316.973 511.434 317.003 511.082 317.113 510.751C317.224 510.421 317.411 510.121 317.661 509.877C317.91 509.632 318.213 509.451 318.547 509.347C318.88 509.244 319.233 509.221 319.577 509.28L350.964 507.664C357.433 507.331 358.967 505.915 357.983 512.262C357.299 517.002 355.682 521.617 354.999 526.415Z" fill="#3F3D56"/>
<path opacity="0.1" d="M354.999 526.415C351.922 547.982 355.674 569.974 361.518 590.958C362.61 594.865 363.785 598.805 365.828 602.312C367.87 605.819 370.713 608.835 373.114 612.134C378.116 619.014 381.05 627.128 383.793 635.158C391.354 657.379 397.705 679.993 402.817 702.9C403.125 703.839 403.125 704.852 402.817 705.791C402.092 707.457 399.891 707.673 398.082 707.665L374.689 707.54C373.856 705.94 375.398 704.208 376.357 702.675C379.691 697.494 376.49 690.763 373.547 685.34C366.395 672.169 360.859 658.184 357.058 643.689C355.457 637.582 354.157 631.343 351.556 625.587C348.413 618.606 343.486 612.6 339.484 606.069C334.832 598.48 331.44 590.242 328.072 581.97C323.37 570.491 318.626 558.87 316.776 546.608C315.033 535.095 315.892 523.366 317.026 511.779C316.973 511.434 317.003 511.082 317.113 510.751C317.224 510.421 317.411 510.121 317.661 509.877C317.91 509.632 318.213 509.451 318.547 509.347C318.88 509.244 319.233 509.221 319.577 509.28L350.964 507.664C357.433 507.331 358.967 505.915 357.983 512.262C357.299 517.002 355.682 521.617 354.999 526.415Z" fill="black"/>
<path d="M348.829 473.985C355.207 483.148 361.893 493.694 359.775 504.665C358.166 512.995 351.814 519.451 345.82 525.491C321.861 549.532 298.302 576.239 290.149 609.185C288.048 617.698 287.031 626.437 285.222 635.008C281.937 650.586 276.052 665.481 270.216 680.283L254.577 719.727C249.726 719.846 244.957 718.471 240.915 715.789C236.874 713.106 233.756 709.246 231.985 704.733C234.036 704.574 236.712 702.592 237.912 700.926C244.581 691.704 245.948 679.842 247.657 668.596C249.55 656.167 252.076 643.839 254.61 631.518L265.814 577.005C267.106 570.716 268.399 564.418 270.083 558.22C276.602 534.212 288.957 511.571 290.866 486.747C291.149 483.098 291.324 479.091 293.8 476.384C296.401 473.527 300.669 473.052 304.529 472.827C320.143 471.827 333.615 470.303 348.829 473.985Z" fill="#3F3D56"/>
<path d="M390.954 702.342C392.654 701.939 394.392 701.715 396.139 701.676C397.814 701.735 399.451 702.184 400.922 702.986C402.392 703.789 403.655 704.923 404.609 706.299C405.583 707.858 406.348 709.539 406.885 711.297L409.144 717.778C409.811 719.677 410.462 721.868 409.469 723.609C408.732 724.691 407.669 725.51 406.435 725.95C400.966 728.382 394.764 728.516 388.845 729.099C383.059 729.665 377.324 730.681 371.613 731.748C369.646 732.123 367.687 732.497 365.694 732.697C361.243 733.147 356.758 732.697 352.306 732.298L347.713 731.856C346.175 731.79 344.654 731.509 343.194 731.023C342.465 730.776 341.793 730.383 341.22 729.869C340.647 729.355 340.184 728.73 339.86 728.032C338.726 725.225 341.16 721.901 344.136 721.318C345.345 721.085 346.637 721.193 347.821 721.035C349.21 720.797 350.565 720.391 351.856 719.827C357.691 717.52 363.669 715.187 368.837 711.555C370.271 710.547 371.772 709.139 371.613 707.39C371.464 706.641 371.215 705.915 370.871 705.232C370.171 703.445 370.147 701.463 370.805 699.66C371.088 698.893 371.638 698.085 372.414 697.994C374.615 697.727 374.348 700.934 374.673 702.159C375.115 703.825 375.915 703.975 377.482 703.825C381.984 703.416 386.486 703.192 390.954 702.342Z" fill="#F2F2F2"/>
<path d="M259.345 724.725C259.305 727.98 258.185 731.13 256.161 733.68C255.542 734.441 254.769 735.063 253.893 735.505C252.575 736.047 251.147 736.273 249.725 736.163C245.757 736.076 241.835 735.284 238.146 733.822C236.846 733.234 235.509 732.73 234.144 732.314C232.426 731.963 230.689 731.713 228.942 731.564C222.048 730.573 215.995 726.508 209.335 724.45C207.344 723.958 205.394 723.317 203.499 722.534C200.865 721.293 198.731 719.202 196.638 717.178C195.404 716.085 194.342 714.813 193.487 713.404C192.261 711.13 192.186 708.406 192.136 705.832C192.091 705.43 192.161 705.023 192.336 704.658C192.527 704.395 192.787 704.19 193.087 704.066C195.112 703.067 197.513 703.566 199.756 703.958C207.859 705.399 216.154 705.132 224.382 704.866C225.163 704.973 225.957 704.82 226.641 704.43C227.326 704.039 227.862 703.434 228.167 702.708L231.293 697.71C232.185 696.277 233.602 694.636 235.219 695.128C236.512 695.519 237.037 697.102 236.987 698.46C236.937 699.818 236.52 701.167 236.778 702.492C236.963 703.221 237.294 703.904 237.753 704.5C238.212 705.096 238.788 705.592 239.446 705.957C240.759 706.671 242.161 707.208 243.614 707.557C248.216 708.856 253.568 710.331 257.128 713.713C259.746 716.112 259.504 721.485 259.345 724.725Z" fill="#F2F2F2"/>
<path d="M260.963 394.231C259.168 392.86 257.627 391.185 256.411 389.283C255.364 387.136 254.706 384.82 254.469 382.444L253.16 374.18C252.435 369.623 251.584 364.8 248.542 361.326C245.499 357.853 239.438 356.612 236.345 360.044C234.995 361.535 234.461 363.584 234.128 365.575C233.176 371.512 233.568 377.586 235.273 383.352C236.978 389.118 239.954 394.429 243.981 398.896C247.724 402.994 252.318 406.251 256.278 410.125C259.729 413.457 262.722 417.281 265.906 420.904C273.608 429.658 282.428 437.36 292.141 443.813C292.025 437.615 291.233 430.967 292.141 424.811C292.817 420.363 294.642 417.964 290.332 415.057C280.329 408.259 270.233 402.111 260.963 394.231Z" fill="#FBBEBE"/>
<path d="M345.028 333.27C345.353 337.702 347.196 342.233 350.864 344.791C340.476 348.423 330.231 352.427 320.127 356.803C322.078 354.929 322.67 352.055 322.761 349.356C323.02 342.3 320.577 335.361 317.009 329.28C316.442 328.509 316.114 327.587 316.067 326.631C316.184 324.665 318.518 323.757 320.435 323.299C326.977 321.713 333.653 320.745 340.376 320.408C343.253 320.317 346.662 319.409 346.012 323.066C345.395 326.481 344.77 329.813 345.028 333.27Z" fill="#FBBEBE"/>
<path d="M324.937 335.644C311.479 335.644 300.569 324.743 300.569 311.295C300.569 297.847 311.479 286.946 324.937 286.946C338.395 286.946 349.305 297.847 349.305 311.295C349.305 324.743 338.395 335.644 324.937 335.644Z" fill="#FBBEBE"/>
<path d="M300.811 377.062C301.662 375.234 302.698 373.498 303.904 371.881C308.322 365.542 312.858 359.211 318.526 353.963C322.821 350.136 327.468 346.725 332.407 343.775C335.071 341.949 338.001 340.545 341.093 339.609C342.928 339.203 344.794 338.95 346.67 338.851L352.998 338.335C353.553 338.261 354.116 338.278 354.665 338.385C356.382 338.818 357.166 340.951 356.799 342.675C356.432 344.399 355.132 345.799 353.982 347.107C353.698 360.01 359.442 372.739 360.217 385.626C361.576 408.159 347.813 429.118 346.712 451.668C346.599 452.687 346.707 453.718 347.029 454.692C347.212 455.158 347.487 455.583 347.696 456.041C348.346 457.458 348.321 459.065 348.438 460.623C348.892 466.179 351.327 471.387 355.299 475.301C354.266 476.581 352.939 477.593 351.431 478.25C348.771 479.408 345.595 479.508 342.769 480.316C335.399 482.465 327.847 484.631 320.185 484.173C319.234 482.103 318.644 479.886 318.443 477.617C317.359 476.942 316.109 478.383 315.942 479.649C315.775 480.915 316.017 482.39 315.108 483.306C314.2 484.223 313.049 484.081 311.94 483.939C307.264 483.348 302.77 481.774 298.185 480.716C293.6 479.658 288.698 479.149 284.238 480.666C283.338 479.524 283.721 477.833 284.455 476.584C285.189 475.334 286.231 474.235 286.647 472.844C286.857 472.042 286.947 471.214 286.914 470.386C286.914 463.264 285.447 456.066 286.839 449.077C287.248 447.028 287.898 445.029 288.315 442.971C289.148 438.981 289.023 434.866 288.915 430.792C288.807 426.719 289.299 422.312 289.382 418.18C289.384 416.473 289.496 414.767 289.715 413.074C289.999 411.3 290.549 409.567 290.699 407.776C291.149 403.228 289.315 398.713 289.59 394.148C290.049 387.217 298.11 383.452 300.811 377.062Z" fill="#FF6F61"/>
<path d="M355.807 373.797C361.709 389.441 364.594 406.035 367.478 422.512L374.148 461.214C376.04 472.152 377.941 483.156 377.866 494.252C377.866 497.368 377.666 500.542 378.483 503.549C379.55 507.497 382.201 510.788 384.21 514.378C388.286 521.71 389.644 530.244 388.044 538.478C387.361 541.935 385.494 545.858 381.984 546.258C379.099 546.575 376.607 544.284 374.923 541.918C371.055 536.495 369.137 529.947 367.42 523.5C361.891 502.429 358.025 480.957 355.857 459.282C355.651 456.538 355.264 453.811 354.698 451.118C353.962 448.342 353.02 445.624 351.881 442.988C349.33 436.668 346.776 430.348 344.219 424.028C338.326 409.425 332.398 394.756 324.304 381.244C332.307 378.945 340.635 376.246 348.638 373.972C350.947 373.289 353.423 373.697 355.807 373.797Z" fill="#FBBEBE"/>
<path d="M341.935 385.684C347.537 384.476 353.331 384.851 359.05 384.709C359.862 384.768 360.671 384.558 361.351 384.11C362.51 383.118 362.018 381.261 361.434 379.853L358.667 373.189C358.212 371.811 357.455 370.553 356.449 369.507C355.04 368.257 353.056 367.949 351.189 367.724C345.111 367.024 338.859 366.791 332.965 368.432C327.071 370.073 321.527 373.805 318.893 379.328C317.793 381.627 317.284 384.526 318.743 386.617C320.91 389.724 325.771 393.198 329.397 391.499C333.74 389.441 337.067 386.717 341.935 385.684Z" fill="#FF6F61"/>
<path d="M312.149 273.476C316.964 273.424 321.689 274.785 325.737 277.391C329.57 273.761 334.299 271.215 339.441 270.012C344.582 268.809 349.951 268.992 354.998 270.543C355.534 267.472 356.904 264.607 358.958 262.26C361.012 259.914 363.671 258.176 366.646 257.237C369.621 256.298 372.797 256.193 375.827 256.935C378.858 257.676 381.626 259.235 383.83 261.441C386.035 263.648 387.59 266.416 388.327 269.446C389.064 272.475 388.954 275.648 388.009 278.62C387.064 281.591 385.32 284.245 382.969 286.294C380.617 288.342 377.747 289.706 374.673 290.236C375.772 293.989 376.121 297.922 375.7 301.811C375.279 305.699 374.095 309.466 372.216 312.897C370.338 316.328 367.802 319.356 364.752 321.807C361.703 324.259 358.2 326.086 354.444 327.185C350.688 328.284 346.752 328.633 342.861 328.211C338.97 327.79 335.2 326.608 331.766 324.731C328.333 322.854 325.303 320.319 322.849 317.272C320.396 314.225 318.567 310.725 317.467 306.972C315.709 307.331 313.919 307.513 312.124 307.513C300.369 307.513 290.832 299.891 290.832 290.494C290.832 281.098 300.411 273.476 312.149 273.476Z" fill="#3F3D56"/>
<path opacity="0.1" d="M307.906 298.999C309.701 299.004 311.492 298.823 313.249 298.458C314.084 301.505 315.401 304.399 317.151 307.03C315.502 307.347 313.828 307.509 312.149 307.513C301.161 307.513 292.141 300.849 290.983 292.319C294.892 296.384 301.02 298.999 307.906 298.999Z" fill="black"/>
<path opacity="0.1" d="M341.969 320.275C346.632 320.268 351.229 319.17 355.39 317.068C359.552 314.965 363.162 311.918 365.933 308.17C368.703 304.422 370.556 300.077 371.343 295.484C372.129 290.891 371.828 286.178 370.463 281.723C374.408 281.029 377.981 278.969 380.556 275.903C383.132 272.838 384.543 268.964 384.543 264.962C384.545 263.94 384.453 262.919 384.268 261.913C386.348 264.158 387.783 266.921 388.424 269.912C389.064 272.903 388.886 276.011 387.909 278.91C386.931 281.808 385.19 284.39 382.868 286.383C380.546 288.376 377.729 289.707 374.715 290.236C377.01 297.767 376.228 305.899 372.54 312.855C368.851 319.811 362.557 325.025 355.033 327.356C347.509 329.688 339.366 328.949 332.386 325.299C325.406 321.649 320.157 315.386 317.785 307.88C320.54 311.717 324.171 314.843 328.377 316.999C332.583 319.155 337.242 320.278 341.969 320.275Z" fill="black"/>
<path d="M233.251 370.485C233.16 370.358 233.188 370.182 233.314 370.093C233.439 370.003 233.615 370.034 233.706 370.161L236.059 373.457C236.15 373.584 236.122 373.76 235.996 373.849C235.871 373.939 235.695 373.908 235.604 373.781L233.251 370.485Z" fill="#3A3768"/>
<path d="M246.426 356.491C246.375 356.42 246.392 356.321 246.463 356.27C246.534 356.219 246.633 356.236 246.684 356.307L247.381 357.283C247.432 357.354 247.415 357.453 247.344 357.504C247.273 357.555 247.174 357.538 247.123 357.467L246.426 356.491Z" fill="#3A3768"/>
<path d="M248.045 358.791C247.989 358.712 248.007 358.603 248.086 358.547C248.165 358.491 248.274 358.509 248.33 358.587L249.662 360.452C249.718 360.531 249.7 360.64 249.621 360.696C249.542 360.752 249.433 360.734 249.377 360.655L248.045 358.791Z" fill="#3A3768"/>
<path d="M250.113 361.683C250.059 361.608 250.077 361.504 250.152 361.451C250.227 361.398 250.331 361.415 250.384 361.49L251.74 363.388C251.794 363.463 251.776 363.567 251.701 363.621C251.626 363.674 251.522 363.657 251.469 363.582L250.113 361.683Z" fill="#3A3768"/>
<path d="M229.21 363.411L241.045 354.972C241.99 354.299 243.302 354.518 243.976 355.462L263.659 383.026C264.333 383.97 264.114 385.281 263.169 385.955L251.335 394.393C250.39 395.066 249.078 394.847 248.404 393.904L228.721 366.339C228.047 365.395 228.266 364.084 229.21 363.411Z" fill="#3A3768"/>
<path opacity="0.1" d="M229.21 363.411L241.045 354.972C241.99 354.299 243.302 354.518 243.976 355.462L263.659 383.026C264.333 383.97 264.114 385.281 263.169 385.955L251.335 394.393C250.39 395.066 249.078 394.847 248.404 393.904L228.721 366.339C228.047 365.395 228.266 364.084 229.21 363.411Z" fill="black"/>
<path d="M229.983 361.858L241.818 353.419C242.762 352.746 244.074 352.965 244.748 353.909L264.432 381.473C265.106 382.417 264.886 383.728 263.942 384.402L252.107 392.84C251.163 393.513 249.851 393.294 249.177 392.351L229.493 364.786C228.819 363.842 229.038 362.531 229.983 361.858Z" fill="#3A3768"/>
<path d="M231.052 362.359L232.794 361.11L232.944 361.318C233.13 361.573 233.407 361.746 233.719 361.801C234.03 361.855 234.35 361.787 234.611 361.61L240.18 357.636C240.444 357.447 240.622 357.161 240.675 356.841C240.729 356.521 240.652 356.192 240.463 355.928L240.313 355.72L241.981 354.554C242.139 354.44 242.319 354.358 242.509 354.313C242.7 354.269 242.897 354.262 243.09 354.294C243.283 354.325 243.467 354.395 243.633 354.498C243.799 354.601 243.943 354.736 244.057 354.895L263.297 381.844C263.526 382.165 263.618 382.563 263.554 382.951C263.49 383.34 263.275 383.688 262.955 383.918L252.001 391.723C251.842 391.837 251.662 391.919 251.472 391.963C251.281 392.007 251.083 392.013 250.891 391.98C250.698 391.948 250.513 391.877 250.347 391.773C250.182 391.669 250.038 391.533 249.925 391.374L230.685 364.434C230.572 364.274 230.491 364.093 230.449 363.902C230.406 363.711 230.401 363.513 230.435 363.32C230.47 363.127 230.542 362.943 230.647 362.778C230.753 362.613 230.89 362.471 231.052 362.359Z" fill="#6C63FF"/>
<path d="M236.124 358.886L237.82 357.677C237.94 357.591 238.107 357.619 238.193 357.739C238.278 357.859 238.25 358.025 238.13 358.111L236.434 359.32C236.314 359.406 236.147 359.378 236.062 359.258C235.976 359.138 236.004 358.972 236.124 358.886Z" fill="#E6E8EC"/>
<path d="M235.536 359.985C235.371 359.985 235.236 359.851 235.236 359.685C235.236 359.52 235.371 359.385 235.536 359.385C235.702 359.385 235.836 359.52 235.836 359.685C235.836 359.851 235.702 359.985 235.536 359.985Z" fill="#E6E8EC"/>
<path d="M235.453 151.604C250.267 151.604 264.473 157.484 274.948 167.951C285.423 178.418 291.308 192.614 291.308 207.417C291.308 238.239 232.785 340.318 232.785 340.318C232.785 340.318 179.598 238.28 179.598 207.417C179.598 192.614 185.483 178.418 195.958 167.951C206.432 157.484 220.639 151.604 235.453 151.604ZM235.453 244.636C241.24 244.636 246.898 242.921 251.71 239.709C256.522 236.496 260.272 231.929 262.487 226.586C264.701 221.244 265.281 215.365 264.152 209.693C263.023 204.021 260.236 198.811 256.144 194.722C252.051 190.633 246.838 187.848 241.161 186.72C235.485 185.592 229.602 186.171 224.255 188.384C218.908 190.597 214.338 194.344 211.123 199.153C207.908 203.961 206.192 209.614 206.192 215.397C206.187 219.239 206.941 223.045 208.41 226.595C209.878 230.146 212.033 233.373 214.751 236.091C217.469 238.809 220.696 240.965 224.248 242.435C227.8 243.906 231.608 244.662 235.453 244.661V244.636Z" fill="#6C63FF"/>
<path opacity="0.1" d="M235.453 151.604C250.267 151.604 264.473 157.484 274.948 167.951C285.423 178.418 291.308 192.614 291.308 207.417C291.308 238.239 232.785 340.318 232.785 340.318C232.785 340.318 179.598 238.28 179.598 207.417C179.598 192.614 185.483 178.418 195.958 167.951C206.432 157.484 220.639 151.604 235.453 151.604ZM235.453 244.636C241.24 244.636 246.898 242.921 251.71 239.709C256.522 236.496 260.272 231.929 262.487 226.586C264.701 221.244 265.281 215.365 264.152 209.693C263.023 204.021 260.236 198.811 256.144 194.722C252.051 190.633 246.838 187.848 241.161 186.72C235.485 185.592 229.602 186.171 224.255 188.384C218.908 190.597 214.338 194.344 211.123 199.153C207.908 203.961 206.192 209.614 206.192 215.397C206.187 219.239 206.941 223.045 208.41 226.595C209.878 230.146 212.033 233.373 214.751 236.091C217.469 238.809 220.696 240.965 224.248 242.435C227.8 243.906 231.608 244.662 235.453 244.661V244.636Z" fill="black"/>
<path d="M235.453 140C250.267 140 264.473 145.88 274.948 156.347C285.423 166.814 291.308 181.01 291.308 195.813C291.308 226.635 232.785 340.343 232.785 340.343C232.785 340.343 179.598 226.651 179.598 195.821C179.597 188.491 181.041 181.232 183.848 174.46C186.654 167.687 190.768 161.534 195.955 156.35C201.141 151.167 207.299 147.055 214.076 144.249C220.853 141.444 228.117 140 235.453 140ZM235.453 233.032C241.24 233.032 246.898 231.317 251.71 228.105C256.522 224.892 260.272 220.325 262.487 214.982C264.701 209.64 265.281 203.761 264.152 198.089C263.023 192.417 260.236 187.207 256.144 183.118C252.051 179.029 246.838 176.244 241.161 175.116C235.485 173.987 229.602 174.567 224.255 176.78C218.908 178.993 214.338 182.74 211.123 187.549C207.908 192.357 206.192 198.01 206.192 203.793C206.192 207.633 206.949 211.435 208.419 214.982C209.89 218.53 212.045 221.753 214.762 224.468C217.479 227.183 220.705 229.337 224.255 230.807C227.805 232.276 231.61 233.032 235.453 233.032Z" fill="#6C63FF"/>
</svg>
