<svg width="31" height="30" viewBox="0 0 31 30" fill="none" xmlns="http://www.w3.org/2000/svg">
<g id="24 / symbols / facebook">
<path id="icon" fill-rule="evenodd" clip-rule="evenodd" d="M5.16683 2.729H25.8335C27.2602 2.729 28.4168 3.83188 28.4168 5.19234V24.899C28.4168 26.2595 27.2602 27.3624 25.8335 27.3624H5.16683C3.74009 27.3624 2.5835 26.2595 2.5835 24.899V5.19234C2.5835 3.83188 3.74009 2.729 5.16683 2.729ZM5.16683 5.19235V24.8991H25.8335V5.19235H5.16683ZM14.3804 15.0511H16.7918V22.4357H19.3752V15.0511H21.9358V12.5878H19.3752V11.3507C19.3752 10.6704 19.9535 10.119 20.6668 10.119H21.9585V7.65567H20.6668C18.5267 7.65567 16.7918 9.30998 16.7918 11.3507V12.5878H14.3804V15.0511Z" fill="black"/>
</g>
</svg>
