<svg width="231" height="78" viewBox="0 0 231 78" fill="none" xmlns="http://www.w3.org/2000/svg">
<g clip-path="url(#clip0)">
<path d="M212.605 9.35933e-06H18.4058C17.6979 9.35933e-06 16.9985 9.35944e-06 16.2925 0.00390936C15.7015 0.00780936 15.1152 0.0191389 14.5186 0.0286744C13.2223 0.0440829 11.9291 0.159278 10.6502 0.373259C9.37312 0.591898 8.13602 1.00409 6.98077 1.59591C5.82692 2.19273 4.77262 2.96824 3.85612 3.89429C2.9348 4.81775 2.16681 5.88514 1.58168 7.05542C0.994931 8.22337 0.588079 9.47494 0.375174 10.7669C0.160245 12.0572 0.0445892 13.3624 0.0292456 14.6708C0.0113315 15.2687 0.00943968 15.8685 0 16.4665V61.5393C0.00943968 62.1447 0.0113315 62.7313 0.0292456 63.337C0.0445939 64.6453 0.160249 65.9504 0.375174 67.2407C0.587491 68.5334 0.994367 69.7857 1.58168 70.9541C2.16654 72.1206 2.93464 73.1836 3.85612 74.1019C4.76915 75.0321 5.82413 75.8082 6.98077 76.4004C8.13601 76.9938 9.37298 77.4085 10.6502 77.6305C11.9294 77.8427 13.2224 77.958 14.5186 77.9752C15.1152 77.9885 15.7015 77.9961 16.2925 77.9961C16.9985 78 17.6979 78 18.4058 78H212.605C213.298 78 214.003 78 214.697 77.9961C215.285 77.9961 215.889 77.9885 216.477 77.9752C217.77 77.9589 219.061 77.8436 220.338 77.6305C221.619 77.4069 222.86 76.9923 224.021 76.4004C225.177 75.8078 226.231 75.0318 227.143 74.1019C228.062 73.18 228.832 72.1177 229.424 70.9541C230.007 69.7848 230.41 68.5326 230.619 67.2407C230.834 65.9502 230.954 64.6454 230.977 63.337C230.985 62.7313 230.985 62.1447 230.985 61.5393C231 60.8308 231 60.1263 231 59.4064V18.5955C231 17.8813 231 17.173 230.985 16.4665C230.985 15.8685 230.985 15.2687 230.977 14.6707C230.954 13.3622 230.834 12.0573 230.619 10.7668C230.409 9.47561 230.006 8.22414 229.424 7.05534C228.232 4.70964 226.343 2.80026 224.021 1.59573C222.86 1.00537 221.619 0.593278 220.338 0.373083C219.061 0.15816 217.771 0.0429245 216.477 0.0284014C215.889 0.0188854 215.285 0.00745836 214.697 0.00365586C214.003 -0.000244141 213.298 -0.000244141 212.605 -0.000244141V9.35933e-06Z" fill="#A6A6A6"/>
<path d="M16.3017 76.2935C15.7136 76.2935 15.1396 76.2859 14.5561 76.2727C13.3472 76.2568 12.1412 76.1505 10.9479 75.9546C9.83519 75.7611 8.75727 75.401 7.74971 74.8862C6.75139 74.3758 5.84084 73.7064 5.05294 72.9039C4.25364 72.1107 3.58818 71.1909 3.08294 70.1807C2.57214 69.1639 2.21863 68.0741 2.03473 66.9492C1.83614 65.7404 1.72869 64.5181 1.71332 63.2929C1.70108 62.8816 1.68506 61.5124 1.68506 61.5124V16.4663C1.68506 16.4663 1.70212 15.118 1.71342 14.7219C1.72814 13.4986 1.83496 12.2783 2.03296 11.0714C2.21719 9.94334 2.57097 8.85036 3.08205 7.83028C3.58543 6.82079 4.2472 5.90023 5.04168 5.10428C5.83528 4.30077 6.74874 3.62798 7.74877 3.11046C8.75401 2.59739 9.82989 2.23983 10.9403 2.04978C12.1376 1.85199 13.3478 1.74505 14.5608 1.72986L16.3027 1.70605H214.687L216.45 1.73082C217.652 1.74525 218.851 1.85123 220.038 2.04787C221.159 2.24031 222.246 2.60035 223.263 3.11618C225.267 4.15913 226.897 5.80917 227.925 7.83504C228.428 8.84808 228.776 9.93214 228.958 11.0504C229.159 12.2672 229.271 13.4972 229.294 14.7305C229.299 15.2827 229.299 15.8759 229.299 16.4663C229.315 17.1975 229.315 17.8935 229.315 18.5953V59.4062C229.315 60.1146 229.315 60.8059 229.299 61.5028C229.299 62.1369 229.299 62.7178 229.292 63.3157C229.269 64.527 229.159 65.735 228.962 66.93C228.782 68.0631 228.43 69.1614 227.919 70.1865C227.411 71.1858 226.749 72.0977 225.959 72.8886C225.17 73.6955 224.258 74.3688 223.258 74.8825C222.244 75.4012 221.158 75.7626 220.038 75.9546C218.844 76.1515 217.638 76.2578 216.429 76.2727C215.864 76.2859 215.272 76.2935 214.697 76.2935L212.604 76.2974L16.3017 76.2935Z" fill="black"/>
<path d="M47.8138 39.586C47.8346 37.9584 48.2625 36.3626 49.0579 34.947C49.8533 33.5314 50.9902 32.342 52.3629 31.4895C51.4909 30.2315 50.3405 29.1961 49.003 28.4657C47.6656 27.7354 46.178 27.3301 44.6584 27.282C41.4168 26.9383 38.2742 29.2415 36.6223 29.2415C34.9385 29.2415 32.3952 27.3162 29.6564 27.3731C27.885 27.4309 26.1585 27.9513 24.6453 28.8835C23.1321 29.8157 21.8838 31.128 21.0219 32.6924C17.2885 39.2219 20.0733 48.8179 23.6496 54.0958C25.4388 56.6802 27.53 59.5671 30.2663 59.4647C32.9439 59.3525 33.9439 57.74 37.176 57.74C40.378 57.74 41.3163 59.4647 44.108 59.3996C46.9812 59.3525 48.7914 56.8037 50.518 54.1948C51.8036 52.3533 52.7928 50.318 53.4491 48.1644C51.7799 47.4512 50.3554 46.2575 49.3533 44.732C48.3512 43.2065 47.8158 41.4168 47.8138 39.586Z" fill="white"/>
<path d="M42.5406 23.8111C44.1072 21.9114 44.879 19.4696 44.6921 17.0044C42.2987 17.2583 40.0879 18.4138 38.5001 20.2406C37.7239 21.1331 37.1293 22.1713 36.7505 23.296C36.3716 24.4207 36.216 25.6098 36.2923 26.7953C37.4894 26.8078 38.6738 26.5457 39.7561 26.0288C40.8384 25.5118 41.7904 24.7536 42.5406 23.8111Z" fill="white"/>
<path d="M81.6604 52.9222H72.5231L70.3287 59.4673H66.4585L75.1133 35.2522H79.1343L87.7891 59.4673H83.8528L81.6604 52.9222ZM73.4694 49.902H80.7123L77.1418 39.2798H77.0419L73.4694 49.902Z" fill="white"/>
<path d="M106.481 50.6408C106.481 56.1271 103.574 59.6519 99.1871 59.6519C98.0758 59.7107 96.9707 59.4521 95.9981 58.9058C95.0256 58.3596 94.225 57.5477 93.6881 56.5631H93.605V65.3077H90.0176V41.8125H93.4901V44.7489H93.5561C94.1177 43.7691 94.9319 42.9614 95.9118 42.4118C96.8917 41.8622 98.0008 41.5913 99.1211 41.6278C103.557 41.6278 106.481 45.1698 106.481 50.6408ZM102.793 50.6408C102.793 47.0665 100.965 44.7165 98.1747 44.7165C95.4337 44.7165 93.59 47.116 93.59 50.6408C93.59 54.1981 95.4337 56.5803 98.1747 56.5803C100.965 56.5803 102.793 54.2476 102.793 50.6408Z" fill="white"/>
<path d="M125.717 50.6408C125.717 56.1271 122.81 59.6519 118.423 59.6519C117.312 59.7106 116.206 59.4521 115.234 58.9058C114.261 58.3595 113.461 57.5477 112.924 56.5631H112.841V65.3077H109.253V41.8125H112.726V44.7489H112.792C113.354 43.7691 114.168 42.9614 115.148 42.4118C116.127 41.8622 117.237 41.5913 118.357 41.6278C122.793 41.6278 125.717 45.1697 125.717 50.6408ZM122.029 50.6408C122.029 47.0665 120.201 44.7165 117.411 44.7165C114.67 44.7165 112.826 47.1159 112.826 50.6408C112.826 54.198 114.67 56.5803 117.411 56.5803C120.201 56.5803 122.029 54.2475 122.029 50.6408H122.029Z" fill="white"/>
<path d="M138.43 52.7203C138.696 55.1216 141.005 56.6983 144.161 56.6983C147.185 56.6983 149.36 55.1216 149.36 52.9564C149.36 51.0768 148.048 49.9514 144.942 49.1801L141.835 48.4241C137.433 47.3501 135.389 45.2706 135.389 41.8962C135.389 37.7182 138.994 34.8484 144.112 34.8484C149.177 34.8484 152.65 37.7182 152.767 41.8962H149.145C148.929 39.4796 146.951 38.021 144.061 38.021C141.171 38.021 139.194 39.4968 139.194 41.6448C139.194 43.3568 140.457 44.3642 143.546 45.1353L146.188 45.7904C151.106 46.9654 153.149 48.9611 153.149 52.5031C153.149 57.0334 149.577 59.8708 143.895 59.8708C138.579 59.8708 134.99 57.1 134.758 52.7201L138.43 52.7203Z" fill="white"/>
<path d="M160.892 37.6345V41.8126H164.215V44.6823H160.892V54.4152C160.892 55.9272 161.557 56.6318 163.018 56.6318C163.413 56.6248 163.807 56.5969 164.198 56.5479V59.4006C163.541 59.5246 162.874 59.5807 162.206 59.5682C158.667 59.5682 157.287 58.2256 157.287 54.8017V44.6823H154.746V41.8126H157.287V37.6345H160.892Z" fill="white"/>
<path d="M166.14 50.6409C166.14 45.086 169.379 41.5955 174.429 41.5955C179.496 41.5955 182.72 45.086 182.72 50.6409C182.72 56.2109 179.513 59.6863 174.429 59.6863C169.347 59.6863 166.14 56.2109 166.14 50.6409ZM179.065 50.6409C179.065 46.8304 177.336 44.5814 174.429 44.5814C171.522 44.5814 169.795 46.8475 169.795 50.6409C169.795 54.4666 171.522 56.6984 174.429 56.6984C177.336 56.6984 179.065 54.4666 179.065 50.6409H179.065Z" fill="white"/>
<path d="M185.678 41.8126H189.099V44.8175H189.182C189.414 43.879 189.958 43.0496 190.724 42.4687C191.489 41.8879 192.429 41.5909 193.386 41.6278C193.8 41.6264 194.212 41.6717 194.615 41.763V45.1527C194.093 44.9916 193.549 44.9176 193.003 44.9337C192.482 44.9123 191.963 45.0052 191.48 45.2058C190.998 45.4064 190.565 45.7101 190.209 46.096C189.854 46.4819 189.586 46.9408 189.423 47.4413C189.26 47.9418 189.206 48.472 189.265 48.9955V59.4673H185.678L185.678 41.8126Z" fill="white"/>
<path d="M211.156 54.2819C210.673 57.4868 207.583 59.6863 203.63 59.6863C198.546 59.6863 195.39 56.2452 195.39 50.7247C195.39 45.187 198.563 41.5955 203.479 41.5955C208.315 41.5955 211.356 44.9508 211.356 50.3038V51.5454H199.012V51.7644C198.955 52.4141 199.035 53.0687 199.248 53.6846C199.46 54.3005 199.8 54.8636 200.245 55.3366C200.69 55.8095 201.229 56.1815 201.827 56.4278C202.425 56.6741 203.068 56.7891 203.713 56.7651C204.561 56.8453 205.412 56.647 206.139 56.1996C206.866 55.7522 207.431 55.0796 207.749 54.2819L211.156 54.2819ZM199.029 49.0127H207.766C207.798 48.4285 207.711 47.8439 207.509 47.2955C207.307 46.7471 206.995 46.2469 206.592 45.8261C206.189 45.4054 205.705 45.0732 205.17 44.8505C204.634 44.6278 204.058 44.5193 203.479 44.5319C202.895 44.5284 202.316 44.6417 201.775 44.8655C201.235 45.0892 200.743 45.4189 200.33 45.8355C199.916 46.2521 199.588 46.7473 199.365 47.2927C199.141 47.838 199.027 48.4226 199.029 49.0127V49.0127Z" fill="white"/>
<path d="M68.8594 28.6603V17.0251H73.4893C75.6535 17.0251 76.9542 18.1373 76.9542 19.9273C76.9547 20.5153 76.754 21.0855 76.3861 21.5411C76.0181 21.9968 75.5056 22.31 74.9352 22.4276V22.5647C75.6429 22.5986 76.3096 22.9096 76.794 23.4319C77.2783 23.9542 77.542 24.6466 77.5292 25.3622C77.5292 27.4102 76.0531 28.6604 73.593 28.6604L68.8594 28.6603ZM70.6484 21.9515H72.7711C74.3527 21.9515 75.1747 21.363 75.1747 20.2586C75.1747 19.1855 74.3998 18.5571 73.0746 18.5571H70.6484V21.9515ZM73.2348 27.1283C74.8467 27.1283 75.7006 26.4666 75.7006 25.2335C75.7006 24.0157 74.8145 23.3788 73.1311 23.3788H70.6484V27.1283H73.2348Z" fill="white"/>
<path d="M79.3672 26.1772C79.3672 24.5966 80.5322 23.6854 82.6002 23.5559L84.9548 23.4188V22.6609C84.9548 21.7335 84.3478 21.2098 83.1752 21.2098C82.2176 21.2098 81.554 21.565 81.3636 22.1858H79.7027C79.8781 20.6776 81.2825 19.7102 83.2544 19.7102C85.4336 19.7102 86.6628 20.8061 86.6628 22.6609V28.6604H85.0114V27.4264H84.8756C84.6001 27.8691 84.2133 28.2299 83.7546 28.4721C83.2959 28.7143 82.7817 28.8292 82.2647 28.8051C81.8998 28.8434 81.531 28.8041 81.182 28.6896C80.8331 28.5752 80.5118 28.3881 80.2388 28.1405C79.9658 27.8929 79.7472 27.5903 79.597 27.2521C79.4469 26.914 79.3686 26.5478 79.3672 26.1772ZM84.9548 25.4269V24.6928L82.8321 24.8299C81.635 24.9108 81.0921 25.3222 81.0921 26.0962C81.0921 26.8865 81.7708 27.3464 82.704 27.3464C82.9774 27.3744 83.2536 27.3465 83.5162 27.2644C83.7787 27.1823 84.0222 27.0477 84.2322 26.8687C84.4422 26.6896 84.6144 26.4696 84.7386 26.2219C84.8627 25.9743 84.9362 25.7039 84.9548 25.4269Z" fill="white"/>
<path d="M89.125 17.2831C89.1118 17.0587 89.1656 16.8354 89.2794 16.6422C89.3933 16.449 89.5619 16.2948 89.7635 16.1995C89.9652 16.1042 90.1905 16.0723 90.4102 16.1079C90.63 16.1435 90.8342 16.2449 90.9962 16.399C91.1583 16.5531 91.2708 16.7528 91.3192 16.9723C91.3676 17.1918 91.3497 17.4208 91.2677 17.6299C91.1857 17.8389 91.0435 18.0183 90.8594 18.1447C90.6754 18.2712 90.458 18.3389 90.2354 18.3391C90.0931 18.3464 89.9509 18.3246 89.8171 18.2749C89.6834 18.2253 89.561 18.1489 89.4573 18.0503C89.3536 17.9516 89.2707 17.8328 89.2136 17.701C89.1565 17.5692 89.1263 17.427 89.125 17.2831ZM89.3795 19.8796H91.0894V28.6604H89.3794L89.3795 19.8796Z" fill="white"/>
<path d="M96.9765 25.5478L95.0763 28.6603H93.193L96.0754 24.29L93.1685 19.8796H95.1724L97.0406 22.976H97.1763L99.0276 19.8796H100.935L98.0699 24.2176L100.967 28.6603H98.9973L97.1046 25.5478H96.9765Z" fill="white"/>
<path d="M102.481 26.1772C102.481 24.5966 103.646 23.6854 105.714 23.5559L108.069 23.4188V22.6609C108.069 21.7335 107.462 21.2098 106.289 21.2098C105.332 21.2098 104.668 21.565 104.478 22.1858H102.817C102.992 20.6776 104.397 19.7102 106.369 19.7102C108.548 19.7102 109.777 20.8061 109.777 22.6609V28.6604H108.126V27.4264H107.99C107.714 27.8691 107.328 28.2299 106.869 28.4721C106.41 28.7143 105.896 28.8292 105.379 28.8051C105.014 28.8434 104.645 28.8041 104.296 28.6896C103.947 28.5752 103.626 28.3881 103.353 28.1405C103.08 27.8929 102.861 27.5903 102.711 27.2521C102.561 26.914 102.483 26.5478 102.481 26.1772ZM108.069 25.4269V24.6928L105.946 24.8299C104.749 24.9108 104.206 25.3222 104.206 26.0962C104.206 26.8865 104.885 27.3464 105.818 27.3464C106.092 27.3744 106.368 27.3465 106.63 27.2644C106.893 27.1823 107.136 27.0477 107.346 26.8687C107.556 26.6896 107.729 26.4696 107.853 26.2219C107.977 25.9743 108.05 25.7039 108.069 25.4269Z" fill="white"/>
<path d="M112.463 19.8796H114.114V21.2259H114.242C114.427 20.7586 114.754 20.3624 115.176 20.0943C115.597 19.8263 116.092 19.7001 116.589 19.7339C116.846 19.7304 117.103 19.7547 117.355 19.8063V21.5164C117.04 21.4485 116.719 21.4134 116.397 21.4117C116.114 21.386 115.829 21.4204 115.56 21.5127C115.291 21.605 115.044 21.7531 114.835 21.9475C114.626 22.1419 114.46 22.3783 114.347 22.6415C114.234 22.9047 114.176 23.189 114.178 23.4759V28.6604H112.463L112.463 19.8796Z" fill="white"/>
<path d="M123.966 19.8796H125.619V21.2744H125.747C125.964 20.7735 126.331 20.3535 126.796 20.0731C127.261 19.7926 127.801 19.6657 128.341 19.7101C128.764 19.6779 129.189 19.7424 129.584 19.8985C129.978 20.0547 130.334 20.2987 130.623 20.6123C130.911 20.926 131.127 21.3013 131.253 21.7104C131.379 22.1196 131.412 22.5521 131.35 22.9759V28.6602H129.634V23.4111C129.634 22 129.027 21.2983 127.758 21.2983C127.471 21.2847 127.185 21.3341 126.918 21.443C126.652 21.5519 126.412 21.7176 126.214 21.929C126.017 22.1403 125.868 22.3923 125.776 22.6675C125.684 22.9427 125.652 23.2347 125.683 23.5234V28.6603H123.966L123.966 19.8796Z" fill="white"/>
<path d="M133.508 26.1772C133.508 24.5966 134.673 23.6854 136.741 23.5559L139.096 23.4188V22.6609C139.096 21.7335 138.489 21.2098 137.316 21.2098C136.359 21.2098 135.695 21.565 135.505 22.1858H133.844C134.019 20.6776 135.424 19.7102 137.395 19.7102C139.575 19.7102 140.804 20.8061 140.804 22.6609V28.6604H139.152V27.4264H139.017C138.741 27.8691 138.354 28.2299 137.896 28.4721C137.437 28.7143 136.923 28.8292 136.406 28.8051C136.041 28.8434 135.672 28.8041 135.323 28.6896C134.974 28.5752 134.653 28.3881 134.38 28.1405C134.107 27.8929 133.888 27.5903 133.738 27.2521C133.588 26.914 133.51 26.5478 133.508 26.1772ZM139.096 25.4269V24.6928L136.973 24.8299C135.776 24.9108 135.233 25.3222 135.233 26.0962C135.233 26.8865 135.912 27.3464 136.845 27.3464C137.119 27.3744 137.395 27.3465 137.657 27.2644C137.92 27.1823 138.163 27.0477 138.373 26.8687C138.583 26.6896 138.756 26.4696 138.88 26.2219C139.004 25.9743 139.077 25.7039 139.096 25.4269H139.096Z" fill="white"/>
</g>
<defs>
<clipPath id="clip0">
<rect width="231" height="78" fill="white"/>
</clipPath>
</defs>
</svg>
