<svg width="32" height="47" viewBox="0 0 32 47" fill="none" xmlns="http://www.w3.org/2000/svg">
<g id="Map Icon">
<path id="icon" fill-rule="evenodd" clip-rule="evenodd" d="M16.375 46.4418L17.5169 45.2644C27.1193 35.3632 32 26.7179 32 19.1185C32 8.35668 24.8871 0.667328 16.375 0.667328C7.86294 0.667328 0.75 8.35668 0.75 19.1185C0.75 26.7179 5.63074 35.3632 15.2331 45.2644L16.375 46.4418ZM16.375 40.9799C8.22677 32.3081 4.22224 24.9598 4.22224 19.1185C4.22224 10.706 9.71549 4.7676 16.375 4.7676C23.0345 4.7676 28.5278 10.706 28.5278 19.1185C28.5278 24.9598 24.5233 32.3081 16.375 40.9799ZM16.375 8.86787C21.1691 8.86787 25.0556 13.4572 25.0556 19.1185C25.0556 24.7798 21.1691 29.3692 16.375 29.3692C11.5809 29.3692 7.69444 24.7798 7.69444 19.1185C7.69444 13.4572 11.5809 8.86787 16.375 8.86787ZM11.1667 19.1185C11.1667 15.7217 13.4985 12.9681 16.375 12.9681C19.2515 12.9681 21.5833 15.7217 21.5833 19.1185C21.5833 22.5153 19.2515 25.2689 16.375 25.2689C13.4985 25.2689 11.1667 22.5153 11.1667 19.1185Z" fill="#67EBA2"/>
</g>
</svg>
