<svg width="31" height="37" viewBox="0 0 31 37" fill="none" xmlns="http://www.w3.org/2000/svg">
<g id="Easy Icon">
<path id="icon" fill-rule="evenodd" clip-rule="evenodd" d="M31 18.3035C31 15.224 29.2478 12.8125 26.35 12.8125H21.5868L21.6299 12.6739C21.6729 12.5366 21.7938 12.1602 21.9115 11.794L21.9118 11.7929L21.9123 11.7913C22.0167 11.4666 22.1183 11.1503 22.1604 11.0167C22.4551 10.0826 22.6702 9.32996 22.8442 8.58459C23.1072 7.45802 23.25 6.44305 23.25 5.49106C23.25 2.79677 21.8424 1.12332 19.7598 0.407228C18.8205 0.084247 18.0029 -0.00016888 17.05 2.53493e-07H16.3067L15.8414 0.68434C15.3157 1.45737 14.2833 2.85052 13.093 4.4567L13.0928 4.45691L13.0928 4.45693C10.8968 7.42011 8.16366 11.1082 7.08401 12.9651C6.80387 12.8669 6.50715 12.8141 6.2 12.8141H3.1C1.38792 12.8141 0 14.4531 0 16.4748V32.948C0 34.9697 1.38792 36.6087 3.1 36.6087H6.2C7.26504 36.6087 8.20463 35.9745 8.76271 35.0084C9.23292 35.3675 9.75756 35.6673 10.3278 35.9082C11.6334 36.4598 12.9283 36.6292 14.0033 36.606L24.8 36.6071C29.0704 36.6071 31 29.1824 31 18.3035ZM9.30003 16.4732C9.30003 16.0335 9.3689 15.6442 9.51968 15.2285C9.79053 14.4818 12.248 11.1709 14.5772 8.03287L14.5773 8.03283L14.5774 8.03264C15.7795 6.41313 16.9474 4.83965 17.763 3.68841C18.1527 3.72293 18.52 3.79366 18.8932 3.92197C19.7814 4.22739 20.15 4.66563 20.15 5.49107C20.15 6.07053 20.0507 6.77656 19.8558 7.61173C19.7101 8.23582 19.5214 8.8962 19.2556 9.7387C19.2179 9.85811 19.124 10.1504 19.024 10.4615L19.0236 10.4626L19.023 10.4646C18.9012 10.8437 18.7707 11.2498 18.7224 11.4041C18.5209 12.0477 18.3881 12.5216 18.2972 12.9522C17.9111 14.7826 18.2985 16.4732 20.15 16.4732H26.35C27.4214 16.4732 27.9 17.1319 27.9 18.3035C27.9 27.0723 26.3735 32.9464 24.8 32.9464H13.95L13.8928 32.9475C13.2144 32.9618 12.2615 32.8372 11.3722 32.4615C10.0006 31.882 9.30003 30.937 9.30003 29.2857V16.4732ZM3.10005 32.948V16.4748H6.20005V32.948H3.10005Z" fill="#67EBA2"/>
</g>
</svg>
