<svg width="30" height="44" viewBox="0 0 30 44" fill="none" xmlns="http://www.w3.org/2000/svg">
<path fill-rule="evenodd" clip-rule="evenodd" d="M14.9902 43.2703C4.99674 38.0131 0 32.7682 0 27.5357V7.86733C0 6.35761 0.490678 6.00673 1.84867 5.03566C2.25984 4.74165 2.75052 4.39077 3.33116 3.93367C3.60064 3.72152 9.26597 0 14.9902 0C19.979 0 24.1509 1.96683 26.6493 3.93367C27.2299 4.39076 27.7206 4.74162 28.1317 5.03563L28.1318 5.03566C29.4898 6.00673 29.9804 6.35761 29.9804 7.86733C30.0133 8.29458 29.9971 17.3806 29.9868 23.1977V23.1982C29.9833 25.1819 29.9804 26.7854 29.9804 27.5357C29.9804 32.7806 24.9837 38.0254 14.9902 43.2703ZM26.6492 27.5357C26.6492 27.0827 26.6502 26.3237 26.6523 25.0864L26.659 21.2446C26.6612 20.0018 26.6629 18.9352 26.6643 17.9174C26.6704 13.5271 26.6688 9.75903 26.6652 8.5936L26.4364 8.42594L26.4364 8.42591C25.8978 8.03134 25.1958 7.51707 24.8014 7.20662C22.3426 5.27088 18.7547 3.93359 14.9902 3.93359C11.3893 3.93359 6.70998 6.00129 5.17893 7.20662C4.78458 7.51707 4.08257 8.03135 3.54398 8.42592L3.54396 8.42593L3.33113 8.5819V27.5357C3.33113 30.5026 7.04389 34.5549 14.9917 38.9473C22.9386 34.5647 26.6492 30.514 26.6492 27.5357ZM20.4747 14.3439L13.3245 22.7874L9.50552 18.2776L7.15004 21.0591L13.3245 28.3504L22.8301 17.1255L20.4747 14.3439Z" fill="#67EBA2"/>
</svg>
