<svg width="31" height="30" viewBox="0 0 31 30" fill="none" xmlns="http://www.w3.org/2000/svg">
<g id="24 / symbols / twitter">
<path id="icon" fill-rule="evenodd" clip-rule="evenodd" d="M27.2796 5.81788L29.1069 6.02137L28.2855 7.59114C27.8849 8.35666 27.484 9.12217 27.0826 9.88769C27.035 10.0498 26.9514 10.192 26.8276 10.377C26.7759 10.4543 26.5993 10.7003 26.5911 10.7121C26.5445 10.7788 26.51 10.8314 26.4852 10.8735V13.8154C26.4852 21.3434 18.845 26.1271 11.6297 26.1271C10.1533 26.1271 9.03158 26.0596 7.74712 25.7923C5.63331 25.3525 4.06022 24.4781 3.34038 22.95L2.59927 21.3768L4.40034 21.2189C6.02967 21.076 7.44234 20.78 8.52721 20.3837C5.54886 19.9269 3.87981 18.6796 3.87981 16.3371V15.1054H5.17148C5.45527 15.1054 5.71117 15.0835 5.93995 15.0432C3.70466 13.7688 2.58507 11.7244 2.58507 8.88874C2.58483 8.76788 2.58483 8.76787 2.58407 8.63865C2.57567 7.20936 2.65618 6.44565 3.06651 5.47094C3.32949 4.84626 3.70961 4.26796 4.2212 3.73808L5.1959 2.72852L6.14355 3.76123C9.2665 7.1645 12.3536 9.22921 15.5056 9.47895C15.519 6.3386 18.008 3.96206 21.3183 3.96206C22.8615 3.96206 24.2613 4.52061 25.3614 5.52776C25.9635 5.64573 26.6029 5.74252 27.2796 5.81788ZM24.4238 7.8552L24.0278 7.7697L23.7544 7.48355C23.0932 6.79169 22.2632 6.42585 21.3183 6.42585C19.4286 6.42585 18.0888 7.70973 18.0888 9.50503C18.0888 9.79843 18.0809 9.98279 18.0425 10.2251C17.8896 11.192 17.3208 11.9684 16.1513 11.9684C12.2788 11.9684 8.78524 9.99018 5.37852 6.61154C5.20289 7.12062 5.16159 7.64392 5.16736 8.6253C5.16813 8.75656 5.16813 8.75656 5.1684 8.88919C5.1684 11.4117 6.24012 12.7914 8.77763 13.5605L9.67804 13.8334V14.7343C9.67804 15.8268 8.59261 16.8552 7.00446 17.3158C7.73248 17.8425 9.22137 18.1267 11.6302 18.1267H12.9219V19.3584C12.9219 21.123 10.7954 22.5047 7.58321 23.2262C8.63079 23.5323 10.0256 23.6642 11.6297 23.6642C17.59 23.6642 23.9018 19.7122 23.9018 13.8159V10.7367C23.9018 10.3749 24.0118 10.0608 24.1946 9.73421C24.266 9.60652 24.3447 9.48479 24.4418 9.34596C24.46 9.31982 24.5279 9.22512 24.5817 9.14941L24.6841 8.95418C24.85 8.63784 25.0158 8.3215 25.1815 8.00516C24.9239 7.95863 24.6714 7.90865 24.4238 7.8552Z" fill="black"/>
</g>
</svg>
