<svg width="31" height="30" viewBox="0 0 31 30" fill="none" xmlns="http://www.w3.org/2000/svg">
<g id="24 / symbols / youtube">
<path id="icon" fill-rule="evenodd" clip-rule="evenodd" d="M28.4485 22.5936C29.3311 21.1513 29.7082 18.8256 29.7082 15.0423C29.7082 11.2741 29.3346 8.96189 28.4426 7.48086C27.5487 5.94292 26.4884 5.45477 24.3843 5.3376C22.9479 5.24476 19.3778 5.19238 15.5033 5.19238C11.6205 5.19238 8.04879 5.24474 6.60155 5.33833C4.5092 5.45505 3.44873 5.94427 2.54692 7.48649C1.66787 8.9624 1.2915 11.2859 1.2915 15.0561C1.2915 18.8048 1.6697 21.14 2.55464 22.6111C3.44473 24.1335 4.48829 24.6168 6.59845 24.7581C8.11506 24.8427 11.8889 24.8991 15.5033 24.8991C19.1096 24.8991 22.8815 24.8427 24.3843 24.759C26.5139 24.6168 27.5572 24.1327 28.4485 22.5936ZM24.2217 7.79603C25.5379 7.86938 25.7819 7.98218 26.1991 8.7022C26.8065 9.70522 27.1248 11.6682 27.1248 15.0561C27.1248 18.4184 26.8048 20.3921 26.202 21.3777C25.7833 22.1 25.5409 22.2125 24.2187 22.3008C22.7964 22.3799 19.061 22.4358 15.5033 22.4358C11.9376 22.4358 8.2003 22.38 6.76433 22.2999C5.45843 22.2124 5.21255 22.0985 4.8032 21.3984C4.19628 20.3894 3.87484 18.4046 3.87484 15.0423C3.87484 11.682 4.19457 9.70817 4.79825 8.69455C5.21397 7.98369 5.46158 7.86946 6.76442 7.79674C8.1439 7.70759 11.682 7.65573 15.5033 7.65573C19.3164 7.65573 22.8528 7.70761 24.2217 7.79603ZM12.9165 11.3507L19.3748 15.0457L12.9165 18.7407V11.3507Z" fill="black"/>
</g>
</svg>
